<svg width="256" height="256" viewBox="0 0 256 256" fill="none" xmlns="http://www.w3.org/2000/svg">
<g clip-path="url(#clip0_1_3)">
<rect width="256" height="256" rx="62" fill="#631DC0"/>
<path d="M128.388 50.164C148.076 50.164 164.452 55.5 177.516 66.172C190.764 76.844 199.044 91.38 202.356 109.78H161.232C159.576 101.684 155.804 95.336 149.916 90.736C144.028 85.952 136.576 83.56 127.56 83.56C117.256 83.56 108.608 87.424 101.616 95.152C94.808 102.696 91.404 113.828 91.404 128.548C91.404 143.268 94.808 154.492 101.616 162.22C108.608 169.764 117.256 173.536 127.56 173.536C136.576 173.536 144.028 171.236 149.916 166.636C155.804 161.852 159.576 155.412 161.232 147.316H202.356C199.044 165.716 190.764 180.252 177.516 190.924C164.452 201.596 148.076 206.932 128.388 206.932C113.484 206.932 100.236 203.804 88.644 197.548C77.052 191.108 68.036 182 61.596 170.224C55.156 158.448 51.936 144.556 51.936 128.548C51.936 112.54 55.156 98.648 61.596 86.872C68.036 74.912 77.052 65.804 88.644 59.548C100.236 53.292 113.484 50.164 128.388 50.164Z" fill="white"/>
</g>
<defs>
<clipPath id="clip0_1_3">
<rect width="256" height="256" fill="white"/>
</clipPath>
</defs>
</svg>
